<svg xmlns="http://www.w3.org/2000/svg" xmlns:xlink="http://www.w3.org/1999/xlink" x="0px" y="0px" viewBox="0 0 173.3 68.8" style="enable-background:new 0 0 173.3 68.8;" xml:space="preserve"><style type="text/css">	.st0{fill:#FFFFFF;}	.st1{opacity:0.1;}	.st2{fill:none;stroke:#919191;stroke-width:7;stroke-miterlimit:10;}	.st3{opacity:0.6;}	.st4{clip-path:url(#SVGID_00000083082772165207087400000004061978256019072654_);}	.st5{clip-path:url(#SVGID_00000001635169794073027630000005089038037252393656_);}	.st6{fill:#E67613;}	.st7{fill:#EEEEEE;}	.st8{fill:#E37739;}	.st9{fill:#CE5115;}	.st10{fill:none;stroke:#FFFFFF;stroke-width:0.5;stroke-miterlimit:10;}	.st11{fill:none;stroke:#FFFFFF;stroke-width:0.8738;stroke-miterlimit:10;}	.st12{fill:none;stroke:#000000;stroke-width:0.5;stroke-miterlimit:10;}	.st13{fill:none;stroke:#1C1C1C;stroke-width:0.5;stroke-miterlimit:10;}	.st14{fill:none;stroke:#FFFFFF;stroke-width:7;stroke-miterlimit:10;}	.st15{fill:#1C1C1C;}	.st16{opacity:0.2;}	.st17{fill:#828080;}	.st18{fill:none;stroke:#1C1C1C;stroke-miterlimit:10;}	.st19{fill:none;stroke:#828080;stroke-width:0.5;stroke-miterlimit:10;}	.st20{opacity:0.85;}	.st21{clip-path:url(#SVGID_00000091738120129532242800000009713679341373609101_);}	.st22{clip-path:url(#SVGID_00000020373830546857112420000001263397101605263280_);}	.st23{opacity:0.7;fill:#FFFFFF;}	.st24{fill:none;stroke:#FFFFFF;stroke-width:0.9728;stroke-miterlimit:10;}	.st25{clip-path:url(#SVGID_00000005254535103993741060000009610362051344095902_);}	.st26{clip-path:url(#SVGID_00000138574164011573911100000011504440350503195310_);}	.st27{opacity:0.5;fill:none;stroke:#000000;stroke-width:0.9728;stroke-miterlimit:10;}	.st28{fill:none;stroke:#FFFFFF;stroke-width:0.4817;stroke-miterlimit:10;}	.st29{clip-path:url(#SVGID_00000136386941295862679440000007589070007517126039_);}	.st30{clip-path:url(#SVGID_00000067224845659476248500000003946737643281247901_);}	.st31{opacity:0.41;fill:none;stroke:#000000;stroke-width:0.9237;stroke-miterlimit:10;}	.st32{opacity:0.25;}	.st33{clip-path:url(#SVGID_00000165942865284821211570000001931474764468456083_);}	.st34{clip-path:url(#SVGID_00000010300092552535935900000018183945462272582077_);}	.st35{clip-path:url(#SVGID_00000027574158358365994460000003836314605106659493_);}	.st36{clip-path:url(#SVGID_00000119105682973327816380000016357210986138217907_);}	.st37{opacity:0.8;fill:#1C1C1C;}	.st38{fill:none;stroke:#828080;stroke-width:0.88;stroke-miterlimit:10;}	.st39{fill:url(#SVGID_00000155105451396476375350000011243468067450146692_);}	.st40{fill:none;stroke:#7D7F7F;stroke-width:1.0087;stroke-miterlimit:10;}	.st41{fill:url(#SVGID_00000142162120341070147610000009366586777633304994_);}	.st42{fill:url(#SVGID_00000144307239630370888390000009456671261421356420_);}	.st43{fill:#BCBCBC;}	.st44{opacity:0.5;fill:none;stroke:#FFFFFF;stroke-width:0.9728;stroke-miterlimit:10;}	.st45{clip-path:url(#SVGID_00000160880207555507945470000011938742051988027049_);}	.st46{fill:none;stroke:#1C1C1C;stroke-width:0.6303;stroke-miterlimit:10;}	.st47{opacity:0.38;}	.st48{clip-path:url(#SVGID_00000157297730281597392820000007517365641032899004_);}	.st49{clip-path:url(#SVGID_00000106854212993781707480000009306188621171923607_);}	.st50{clip-path:url(#SVGID_00000004547004894940703570000009329896236326190485_);}	.st51{clip-path:url(#SVGID_00000069399480583423738630000014847251047523945372_);}	.st52{clip-path:url(#SVGID_00000008865616526171604630000006659093866830481030_);}	.st53{fill:none;stroke:#828080;stroke-width:0.4274;stroke-miterlimit:10;}	.st54{display:none;}	.st55{display:inline;opacity:0.15;}	.st56{fill:#F4C5DD;}</style><g id="Livello_1">	<g>		<path class="st8" d="M167.9,54.2h-54.3V5.5c0-3,2.4-5.5,5.5-5.5h48.9c3,0,5.5,2.4,5.5,5.5v43.2C173.3,51.7,170.9,54.2,167.9,54.2z   "></path>		<g>			<g>				<path class="st8" d="M3.2,47.6h3c0.8,0,1.5,0.2,1.9,0.7c0.4,0.4,0.6,0.9,0.6,1.5v0c0,1-0.6,1.7-1.4,2l1.6,2.3H7.1l-1.4-2.1H4.6     v2.1H3.2V47.6z M6,50.8c0.7,0,1.1-0.4,1.1-0.9v0c0-0.6-0.4-0.9-1.1-0.9H4.6v1.9H6z"></path>				<path class="st8" d="M13.8,47.6h1.4v6.5h-1.4V47.6z"></path>				<path class="st8" d="M20.6,47.6h2.7c1.5,0,2.5,0.9,2.5,2.2v0c0,1.5-1.2,2.3-2.6,2.3H22v1.9h-1.4V47.6z M23.1,50.9     c0.7,0,1.1-0.4,1.1-1v0c0-0.6-0.4-1-1.2-1H22v2H23.1z"></path>				<path class="st8" d="M32.1,47.6h1.3l2.8,6.5h-1.5l-0.6-1.5h-2.7l-0.6,1.5h-1.5L32.1,47.6z M33.6,51.4l-0.9-2.1l-0.9,2.1H33.6z"></path>				<path class="st8" d="M40.7,47.6h3c0.8,0,1.5,0.2,1.9,0.7c0.4,0.4,0.6,0.9,0.6,1.5v0c0,1-0.6,1.7-1.4,2l1.6,2.3h-1.7l-1.4-2.1     h-1.1v2.1h-1.4V47.6z M43.6,50.8c0.7,0,1.1-0.4,1.1-0.9v0c0-0.6-0.4-0.9-1.1-0.9h-1.4v1.9H43.6z"></path>				<path class="st8" d="M53.5,47.6h1.3l2.8,6.5h-1.5l-0.6-1.5h-2.7l-0.6,1.5h-1.5L53.5,47.6z M55,51.4l-0.9-2.1l-0.9,2.1H55z"></path>				<path class="st8" d="M62.1,53.1l3.6-4.2h-3.5v-1.3h5.3v1.1L64,52.9h3.6v1.3h-5.4V53.1z"></path>				<path class="st8" d="M73,47.6h1.4v6.5H73V47.6z"></path>				<path class="st8" d="M79.1,50.9L79.1,50.9c0-1.9,1.5-3.4,3.5-3.4S86,49,86,50.9v0c0,1.8-1.5,3.4-3.5,3.4S79.1,52.8,79.1,50.9z      M84.5,50.9L84.5,50.9c0-1.1-0.8-2.1-2-2.1s-1.9,0.9-1.9,2v0c0,1.1,0.8,2,2,2S84.5,52,84.5,50.9z"></path>				<path class="st8" d="M90.8,47.6h1.3l3,4v-4h1.4v6.5h-1.2L92.2,50v4.1h-1.4V47.6z"></path>				<path class="st8" d="M101.9,47.6h1.4v6.5h-1.4V47.6z"></path>			</g>		</g>		<g>			<g>				<path d="M3.2,13.9H14c6.3,0,10.1,3.7,10.1,9.1v0.1c0,6.1-4.8,9.3-10.7,9.3H9v7.9H3.2V13.9z M13.6,27.2c2.9,0,4.6-1.7,4.6-4v-0.1     c0-2.6-1.8-4-4.7-4H9v8.1H13.6z"></path>				<path d="M25.4,34.5L25.4,34.5c0-4.5,3.4-6.5,8.2-6.5c2,0,3.5,0.3,4.9,0.8v-0.3c0-2.4-1.5-3.7-4.3-3.7c-2.2,0-3.7,0.4-5.6,1.1     l-1.4-4.4c2.2-1,4.4-1.6,7.8-1.6c3.1,0,5.4,0.8,6.8,2.3c1.5,1.5,2.2,3.7,2.2,6.5v11.7h-5.5v-2.2c-1.4,1.5-3.3,2.6-6.1,2.6     C28.6,40.7,25.4,38.5,25.4,34.5z M38.6,33.2v-1c-1-0.5-2.3-0.8-3.7-0.8c-2.5,0-4,1-4,2.8v0.1c0,1.5,1.3,2.5,3.1,2.5     C36.8,36.7,38.6,35.3,38.6,33.2z"></path>				<path d="M49.7,34.6V25h-2.4v-4.9h2.4v-5.2h5.7v5.2h4.8V25h-4.8v8.6c0,1.3,0.6,2,1.8,2c1.1,0,2-0.3,2.8-0.7v4.6     c-1.2,0.7-2.6,1.2-4.5,1.2C52.1,40.6,49.7,39.3,49.7,34.6z"></path>				<path d="M62.9,30.3L62.9,30.3c0-5.8,4.4-10.6,10.6-10.6c3.8,0,6.2,1.3,8.1,3.4l-3.5,3.8c-1.3-1.4-2.6-2.2-4.6-2.2     c-2.9,0-4.9,2.5-4.9,5.5v0.1c0,3.1,2,5.6,5.1,5.6c1.9,0,3.2-0.8,4.6-2.2l3.4,3.4c-2,2.2-4.2,3.7-8.3,3.7     C67.4,40.8,62.9,36.1,62.9,30.3z"></path>				<path d="M84.7,12.8h5.7v10.2c1.3-1.7,3-3.2,5.9-3.2c4.3,0,6.9,2.9,6.9,7.5v13.1h-5.7V29c0-2.7-1.3-4.1-3.5-4.1s-3.6,1.4-3.6,4.1     v11.3h-5.7V12.8z"></path>			</g>		</g>		<g>			<g>				<path class="st0" d="M119.7,29V13.9h5.8v14.9c0,4.3,2.2,6.5,5.7,6.5s5.7-2.2,5.7-6.3V13.9h5.8v14.9c0,8-4.5,11.9-11.6,11.9     C124,40.7,119.7,36.8,119.7,29z"></path>				<path class="st0" d="M147.9,13.9h10.8c6.3,0,10.1,3.7,10.1,9.1v0.1c0,6.1-4.8,9.3-10.7,9.3h-4.4v7.9h-5.8V13.9z M158.3,27.2     c2.9,0,4.6-1.7,4.6-4v-0.1c0-2.6-1.8-4-4.7-4h-4.5v8.1H158.3z"></path>			</g>		</g>		<g>			<path class="st8" d="M113.5,63.9c0,1.9,0,3.9,1.8,4.7c1.8,0.8,3-0.5,4.3-1.8c4.1-4.4,12.5-12.9,12.5-12.9h-18.6    C113.5,57.2,113.5,60.5,113.5,63.9z"></path>		</g>		<g>			<path class="st9" d="M143.9,42.6c-0.2-0.1-0.5-0.1-0.8,0.1c-0.3,0.2-0.8,0.7-0.8,0.7l-10.4,10.7h6.3c1.9-3.7,3.8-7.4,5.6-11    C143.9,43,144,42.7,143.9,42.6z"></path>		</g>	</g></g><g id="Livello_3"></g><g id="GRID" class="st54"></g></svg>